<svg id="visual" viewBox="0 0 900 600" width="900" height="600" xmlns="http://www.w3.org/2000/svg" xmlns:xlink="http://www.w3.org/1999/xlink" version="1.1"><rect x="0" y="0" width="900" height="600" fill="#DF678C"></rect><path d="M0 320L18.8 332.8C37.7 345.7 75.3 371.3 112.8 353C150.3 334.7 187.7 272.3 225.2 251C262.7 229.7 300.3 249.3 337.8 260.3C375.3 271.3 412.7 273.7 450.2 293.8C487.7 314 525.3 352 562.8 361.3C600.3 370.7 637.7 351.3 675.2 353.2C712.7 355 750.3 378 787.8 363C825.3 348 862.7 295 881.3 268.5L900 242L900 0L881.3 0C862.7 0 825.3 0 787.8 0C750.3 0 712.7 0 675.2 0C637.7 0 600.3 0 562.8 0C525.3 0 487.7 0 450.2 0C412.7 0 375.3 0 337.8 0C300.3 0 262.7 0 225.2 0C187.7 0 150.3 0 112.8 0C75.3 0 37.7 0 18.8 0L0 0Z" fill="#3A135B" stroke-linecap="round" stroke-linejoin="miter"></path></svg>