<svg id="visual" viewBox="0 0 900 600" width="900" height="600" xmlns="http://www.w3.org/2000/svg" xmlns:xlink="http://www.w3.org/1999/xlink" version="1.1"><rect x="0" y="0" width="900" height="600" fill="#DF678C"></rect><path d="M0 442L18.8 432C37.7 422 75.3 402 112.8 398.2C150.3 394.3 187.7 406.7 225.2 393.2C262.7 379.7 300.3 340.3 337.8 338.5C375.3 336.7 412.7 372.3 450.2 390.3C487.7 408.3 525.3 408.7 562.8 402.8C600.3 397 637.7 385 675.2 382.5C712.7 380 750.3 387 787.8 373.7C825.3 360.3 862.7 326.7 881.3 309.8L900 293L900 601L881.3 601C862.7 601 825.3 601 787.8 601C750.3 601 712.7 601 675.2 601C637.7 601 600.3 601 562.8 601C525.3 601 487.7 601 450.2 601C412.7 601 375.3 601 337.8 601C300.3 601 262.7 601 225.2 601C187.7 601 150.3 601 112.8 601C75.3 601 37.7 601 18.8 601L0 601Z" fill="#3A135B" stroke-linecap="round" stroke-linejoin="miter"></path></svg>