<svg id="visual" viewBox="0 0 900 600" width="900" height="600" xmlns="http://www.w3.org/2000/svg" xmlns:xlink="http://www.w3.org/1999/xlink" version="1.1"><rect x="0" y="0" width="900" height="600" fill="#472976"></rect><path d="M0 359L21.5 365C43 371 86 383 128.8 394.2C171.7 405.3 214.3 415.7 257.2 427.3C300 439 343 452 385.8 450.2C428.7 448.3 471.3 431.7 514.2 408.7C557 385.7 600 356.3 642.8 363.5C685.7 370.7 728.3 414.3 771.2 415.5C814 416.7 857 375.3 878.5 354.7L900 334L900 601L878.5 601C857 601 814 601 771.2 601C728.3 601 685.7 601 642.8 601C600 601 557 601 514.2 601C471.3 601 428.7 601 385.8 601C343 601 300 601 257.2 601C214.3 601 171.7 601 128.8 601C86 601 43 601 21.5 601L0 601Z" fill="#9E7BB8" stroke-linecap="round" stroke-linejoin="miter"></path></svg>